<svg width="34" height="33" viewBox="0 0 34 33" fill="none" xmlns="http://www.w3.org/2000/svg">
<path d="M17.0038 8.03922C12.1797 8.03922 8.28857 11.8167 8.28857 16.5C8.28857 21.1833 12.1797 24.9608 17.0038 24.9608C21.8279 24.9608 25.719 21.1833 25.719 16.5C25.719 11.8167 21.8279 8.03922 17.0038 8.03922ZM17.0038 22.0006C13.8863 22.0006 11.3378 19.5338 11.3378 16.5C11.3378 13.4662 13.8788 10.9994 17.0038 10.9994C20.1288 10.9994 22.6698 13.4662 22.6698 16.5C22.6698 19.5338 20.1213 22.0006 17.0038 22.0006ZM28.1083 7.69313C28.1083 8.79031 27.1981 9.66657 26.0755 9.66657C24.9453 9.66657 24.0427 8.78294 24.0427 7.69313C24.0427 6.60331 24.9529 5.71968 26.0755 5.71968C27.1981 5.71968 28.1083 6.60331 28.1083 7.69313ZM33.8805 9.69603C33.7516 7.05249 33.1296 4.71087 31.1347 2.7816C29.1475 0.852337 26.7354 0.248522 24.0124 0.115977C21.2059 -0.0386589 12.7941 -0.0386589 9.98762 0.115977C7.27217 0.241158 4.86012 0.844974 2.86525 2.77424C0.870385 4.7035 0.255996 7.04513 0.119465 9.68866C-0.0398215 12.4132 -0.0398215 20.5794 0.119465 23.304C0.24841 25.9475 0.870385 28.2891 2.86525 30.2184C4.86012 32.1477 7.26458 32.7515 9.98762 32.884C12.7941 33.0387 21.2059 33.0387 24.0124 32.884C26.7354 32.7588 29.1475 32.155 31.1347 30.2184C33.122 28.2891 33.744 25.9475 33.8805 23.304C34.0398 20.5794 34.0398 12.4206 33.8805 9.69603ZM30.2549 26.2273C29.6632 27.6706 28.5179 28.7825 27.0236 29.3642C24.7861 30.2258 19.4765 30.0269 17.0038 30.0269C14.5311 30.0269 9.21394 30.2184 6.98394 29.3642C5.49727 28.7899 4.35192 27.678 3.75271 26.2273C2.86525 24.0551 3.07005 18.9005 3.07005 16.5C3.07005 14.0995 2.87284 8.93758 3.75271 6.77268C4.34434 5.32941 5.48968 4.2175 6.98394 3.63578C9.22153 2.77424 14.5311 2.97306 17.0038 2.97306C19.4765 2.97306 24.7936 2.7816 27.0236 3.63578C28.5103 4.21014 29.6557 5.32205 30.2549 6.77268C31.1423 8.94494 30.9375 14.0995 30.9375 16.5C30.9375 18.9005 31.1423 24.0624 30.2549 26.2273Z" fill="#BC813C"/>
</svg>
